#define XBM_width 8
#define XBM_height 8
static char XBM_bits[]={0x20,0x20,0x20,0xFF,0x04,0x04,0x04,0xFF,};